<?xml version="1.0" encoding="UTF-8"?>
<svg xmlns="http://www.w3.org/2000/svg" xmlns:xlink="http://www.w3.org/1999/xlink" width="96pt" height="95.999999pt" viewBox="0 0 96 95.999999" version="1.2">
<defs>
<clipPath id="clip1">
  <path d="M 22.265625 6.4375 L 62 6.4375 L 62 82 L 22.265625 82 Z M 22.265625 6.4375 "/>
</clipPath>
<clipPath id="clip2">
  <path d="M 34 13 L 74.015625 13 L 74.015625 89.6875 L 34 89.6875 Z M 34 13 "/>
</clipPath>
</defs>
<g id="surface1">
<g clip-path="url(#clip1)" clip-rule="nonzero">
<path style=" stroke:none;fill-rule:nonzero;fill:rgb(0%,76.078796%,79.60968%);fill-opacity:1;" d="M 61.085938 10.332031 L 53.890625 6.4375 L 53.890625 36.574219 C 52.824219 35.980469 51.710938 35.371094 50.65625 34.804688 C 49.558594 34.195312 48.382812 33.867188 47.125 33.824219 C 45.867188 33.777344 44.667969 34.023438 43.53125 34.558594 L 26.222656 44.242188 C 26.222656 44.242188 22.328125 46.222656 22.28125 51.601562 C 22.242188 56.328125 22.300781 69.519531 22.28125 71.484375 C 22.261719 73.449219 22.894531 75.902344 26.167969 77.824219 C 29.441406 79.742188 32.613281 81.753906 32.613281 81.753906 C 32.613281 81.753906 32.757812 81.730469 32.636719 81.601562 C 32.316406 81.265625 29.4375 79.160156 29.417969 76.152344 C 29.417969 74.082031 29.417969 55.238281 29.417969 55.238281 C 29.417969 55.238281 29.875 50.515625 33.570312 48.40625 C 37.4375 46.191406 48.890625 39.734375 51.492188 38.675781 C 53.777344 37.511719 56.261719 38.15625 57.890625 38.863281 L 61.09375 40.605469 Z M 61.085938 10.332031 "/>
</g>
<g clip-path="url(#clip2)" clip-rule="nonzero">
<path style=" stroke:none;fill-rule:nonzero;fill:rgb(0%,100%,100%);fill-opacity:1;" d="M 73.996094 52.980469 L 73.996094 23.175781 C 74.039062 18.28125 72.835938 16.933594 69.800781 15.046875 L 66.851562 13.511719 L 66.851562 44.125 C 66.054688 43.621094 65.023438 43.015625 63.734375 42.320312 C 62.632812 41.714844 61.457031 41.390625 60.199219 41.34375 C 58.945312 41.300781 57.746094 41.542969 56.609375 42.070312 L 38.957031 51.925781 C 38.957031 51.925781 34.9375 53.902344 34.894531 59.273438 C 34.851562 64.003906 34.910156 76.613281 34.894531 78.578125 C 34.878906 80.539062 35.625 83.078125 38.902344 84.996094 C 41.390625 86.453125 42.558594 87.089844 42.960938 87.3125 C 43.675781 87.769531 44.515625 88.273438 45.503906 88.804688 C 48.078125 90.1875 51.234375 89.664062 52.632812 89.054688 C 56.683594 87.277344 69.9375 79.359375 69.9375 79.359375 C 69.9375 79.359375 73.949219 77.386719 73.996094 72.007812 C 74.035156 67.363281 73.980469 55.238281 73.996094 52.980469 Z M 46.300781 56.085938 C 47.929688 55.136719 50.921875 53.433594 54.03125 51.710938 C 54.03125 56.265625 54.050781 60.4375 54.050781 60.4375 C 54.03125 61.140625 53.921875 61.828125 53.71875 62.5 C 53.519531 63.175781 53.234375 63.8125 52.863281 64.410156 C 52.496094 65.011719 52.054688 65.554688 51.542969 66.039062 C 51.03125 66.523438 50.464844 66.933594 49.847656 67.269531 C 48.1875 68.179688 45.175781 69.898438 42.0625 71.644531 C 42.0625 67.175781 42.046875 62.917969 42.046875 62.917969 C 42.046875 62.917969 41.738281 58.742188 46.300781 56.085938 Z M 66.851562 68.386719 C 66.851562 69.09375 66.75 69.789062 66.554688 70.472656 C 66.355469 71.152344 66.070312 71.796875 65.695312 72.398438 C 65.320312 73.003906 64.871094 73.542969 64.34375 74.023438 C 63.816406 74.5 63.238281 74.898438 62.601562 75.21875 C 58.644531 77.265625 47.28125 83.890625 44.679688 84.949219 C 44.429688 85.0625 44.191406 85.160156 43.960938 85.242188 C 42.546875 85.558594 42.011719 84.476562 42.058594 81.527344 C 42.058594 81.238281 42.058594 80.664062 42.058594 79.890625 L 57.195312 71.414062 C 57.195312 71.414062 61.007812 69.4375 61.054688 64.058594 C 61.085938 60.464844 61.054688 52.414062 61.054688 47.890625 C 62.46875 47.152344 63.601562 46.589844 64.226562 46.335938 C 64.453125 46.230469 64.683594 46.136719 64.910156 46.054688 C 66.359375 45.707031 66.90625 46.78125 66.855469 49.757812 C 66.804688 51.839844 66.851562 68.386719 66.851562 68.386719 Z M 66.851562 68.386719 "/>
</g>
</g>
</svg>
